# xmcd CD database file
#
# Track frame offsets:
#	150
#	15624
#	37466
#	47019
#	73659
#	82109
#	107023
#	127858
#	145342
#	173467
#	187615
#	208762
#	214135
#
# Disc length: 3386 seconds
#
# Revision: 10
# Processed by: cddbd v1.5.2PL0 Copyright (c) Steve Scherf et al.
# Submitted via: CDex 1.51
#
DISCID=b60d380d
DTITLE=Beethoven - Serenade Op.25, Works for madoline and piano
DYEAR=1900
DGENRE=Classique
TTITLE0=Serenade in D major for flute, violin and viola Op.25 - I. Entrata, allegro    [rec.1990]
TTITLE1=Serenade in D major for flute, violin and viola Op.25 - II. Tempo ordinario d'un Menuetto
TTITLE2=Serenade in D major for flute, violin and viola Op.25 - III. Allegro molto
TTITLE3=Serenade in D major for flute, violin and viola Op.25 - IV. Andante con variazioni
TTITLE4=Serenade in D major for flute, violin and viola Op.25 - V. Allegro scherzando e vivace
TTITLE5=Serenade in D major for flute, violin and viola Op.25 - VI. Adagio-allegro vivace disinvolto
TTITLE6=Rondo in G major for violin and piano WoO 41    [rec.2007]
TTITLE7=Trio in E flat major for violin, cello and piano Hess 48
TTITLE8=Adagio in E flat major for mandolin and piano WoO 43 N°2    [rec.1973]
TTITLE9=Sonatina in C major for mandolin and piano WoO 44 N°1
TTITLE10=Sonatina in C minor for mandolin and piano WoO 43 N°1    [rec.1995]
TTITLE11=Andante con variazioni in D major for mandoline and piano WoO 44 N°2 - I. Andante
TTITLE12=Andante con variazioni in D major for mandoline and piano WoO 44 N°2 - II.  Variations 1-6
EXTD=
EXTT0=
EXTT1=
EXTT2=
EXTT3=
EXTT4=
EXTT5=
EXTT6=
EXTT7=
EXTT8=
EXTT9=
EXTT10=
EXTT11=
EXTT12=
PLAYORDER=
